<?xml version="1.0" standalone="no"?><!DOCTYPE svg PUBLIC "-//W3C//DTD SVG 1.1//EN" "http://www.w3.org/Graphics/SVG/1.1/DTD/svg11.dtd"><svg t="1547807504965" class="icon" style="" viewBox="0 0 1000 1000" version="1.1" xmlns="http://www.w3.org/2000/svg" p-id="9939" xmlns:xlink="http://www.w3.org/1999/xlink" width="32" height="32"><defs><style type="text/css"></style></defs><path d="M400.6212 482.5488l96.6595 0 0 16.0611-96.6595 0 0-16.0611ZM407.0711 659.8186l196.494 0 0 32.3221-196.494 0 0-32.3221ZM400.6212 530.931l96.6595 0 0 16.0611-96.6595 0 0-16.0611ZM925.4004 357.8784 572.0072 64.4703c-32.4514-27.0017-85.2468-27.0017-117.6981 0L100.9168 357.8784c-32.5513 27.1026-32.5513 70.868 0 97.8696h84.75009893707602V818.1153178145216c0 54.9078 43.963 99.3756 98.2475 99.3756h458.48740201232016c54.2835 0 98.2465-44.4679 98.2465-99.3756V455.74800285406496h84.75109830148027C957.9507 428.7453 957.9507 384.98 925.4004 357.8784zM661.6212 756.583h-58.056076335450655v-16.060111244576177H407.0711027786328v16.060111244576177h-58.15401404706607V611.5363783354885h312.7041201795658V756.5830367011166zM687.5227 579.2133H400.6212049136749v16.161042812972806h-53.19316914442414V495.0963246918589c-7.7401 7.1272-15.2823 13.6517-23.0234 19.6747-7.2454-18.1687-14.6877-34.2298-22.7265-48.3832 32.2525-27.7052 59.1474-59.9264 80.3849-96.6655l56.0703 12.0458c-4.9618 7.0262-9.8248 13.6517-14.7866 20.1763h74.23078921805732c-4.9618-12.1458-10.1216-24.6933-15.779-37.5415l56.567-10.8407c7.2444 15.6594 14.2909 31.7195 21.4354 48.3832h122.06436706254821v32.221154057548986H550.5718363121056v16.161042812972806h116.50690161057568v32.221154057548986H550.5718363121056v16.06111056703555h116.50690161057568v32.32208562594561H550.5718363121056v16.06111056703555H687.5227355401964V579.2132933870836zM400.6212 434.1656l96.6595 0 0 16.161-96.6595 0 0-16.161Z" p-id="9940"></path></svg>