<?xml version="1.0" standalone="no"?><!DOCTYPE svg PUBLIC "-//W3C//DTD SVG 1.1//EN" "http://www.w3.org/Graphics/SVG/1.1/DTD/svg11.dtd"><svg t="1547807517705" class="icon" style="" viewBox="0 0 1324 1024" version="1.1" xmlns="http://www.w3.org/2000/svg" p-id="10658" xmlns:xlink="http://www.w3.org/1999/xlink" width="41.375" height="32"><defs><style type="text/css"></style></defs><path d="M886.513113 1024c-11.530217 0-24.957811-3.794755-36.488027-9.632839l-249.72406-124.935006-251.621436 124.935006c-24.957811 13.427594-57.651083 11.530217-80.711517-5.692132-23.060433-17.222349-36.488027-48.018244-30.795895-76.77081L288.985177 662.768529 91.220068 478.431015C70.057013 457.267959 62.321551 424.574686 70.057013 397.719498c9.632839-28.752566 32.693273-49.915621 63.343215-53.856328l274.68187-49.915622 122.891676-249.724059c13.427594-26.855188 40.282782-44.223489 69.1813-44.223489s57.651083 17.222349 69.1813 44.223489l122.891676 249.724059L1066.90992 341.965792c28.752566 3.794755 53.856328 24.957811 61.445838 53.856329 9.632839 28.752566 1.897377 59.548461-19.265678 80.711516L911.470924 662.768529l49.915621 268.989738c5.692132 30.795895-7.735462 59.548461-30.795895 76.770809-11.530217 9.632839-26.855188 15.470924-44.077537 15.470924z" p-id="10659" fill="#2c2c2c"></path></svg>