<?xml version="1.0" standalone="no"?><!DOCTYPE svg PUBLIC "-//W3C//DTD SVG 1.1//EN" "http://www.w3.org/Graphics/SVG/1.1/DTD/svg11.dtd"><svg t="1547812858221" class="icon" style="" viewBox="0 0 1024 1024" version="1.1" xmlns="http://www.w3.org/2000/svg" p-id="12892" xmlns:xlink="http://www.w3.org/1999/xlink" width="32" height="32"><defs><style type="text/css"></style></defs><path d="M956.163072 672.571392 956.163072 582.710272c0-24.287232-26.73152-193.021952-26.73152-193.021952-2.076672-13.205504-12.950528-26.418176-22.656-15.081472-9.720832 11.336704-76.93824-6.48192-93.948928-14.589952-16.98816-8.095744-21.046272-3.228672-32.370688-2.427904-11.348992 0.8192-8.114176-12.944384-8.114176-12.944384-0.8192-38.05696-25.919488-50.219008-25.919488-50.219008s-47.77984-35.617792-63.14496-45.339648c-15.39584-9.704448-21.87264-7.281664-21.87264-7.281664-13.76256 2.42688-37.243904 49.398784-42.904576 64.78336-5.675008 15.378432-38.063104 70.439936-54.254592 87.455744-16.186368 16.987136-12.955648 35.606528-12.955648 35.606528-2.322432 4.95616-6.392832 10.10176-11.794432 15.353856-4.350976-4.789248-11.609088-5.988352-17.337344-2.50368l-25.6 15.550464c-6.499328 3.941376-8.569856 12.41088-4.62336 18.921472l0.37888 0.59392c-6.557696 3.620864-13.430784 7.217152-20.494336 10.725376-3.756032-5.443584-11.016192-7.508992-17.206272-4.570112l-27.035648 12.844032c-5.804032 2.753536-8.783872 9.015296-7.60832 15.028224-8.737792 3.603456-17.354752 6.943744-25.688064 10.048512l-0.683008-1.442816c-3.252224-6.861824-11.460608-9.798656-18.333696-6.529024l-27.0592 12.844032c-5.051392 2.397184-7.958528 7.489536-7.852032 12.742656-0.681984 0.190464-1.358848 0.350208-2.029568 0.544768-54.253568 13.748224-43.730944 34.004992-43.730944 34.004992-35.623936 17.804288-141.705216 12.137472-174.099456 17.804288-32.370688 5.6576-39.665664 55.86432-39.665664 55.86432-8.100864 1.632256-8.902656 9.715712-8.902656 9.715712s-0.8192 10.534912-4.878336 24.310784c-4.036608 13.753344 0 20.227072 0 20.227072 52.657152 92.317696 336.87552 80.98816 336.87552 80.98816s455.07584 0 504.46336 0c49.381376 0 51.013632-18.620416 51.013632-18.620416l0-76.939264L956.163072 672.571392zM950.157312 708.426752c-13.722624 19.656704-68.20864 20.79744-78.998528 20.826112L387.04128 729.252864c-10.072064 0.380928-19.902464 0.546816-29.493248 0.546816-164.401152 0-256.70656-49.41824-260.790272-51.613696-3.531776-1.93536-4.825088-6.3744-2.890752-9.91232 1.93536-3.514368 6.33856-4.818944 9.8816-2.889728 1.033216 0.551936 104.318976 55.619584 282.911744 49.304576l0.242688 0L871.140352 714.688512c23.652352-0.082944 60.11904-4.683776 67.050496-14.618624 2.315264-3.294208 6.861824-4.113408 10.156032-1.799168C951.641088 700.58496 952.45312 705.107968 950.157312 708.426752z" p-id="12893" data-spm-anchor-id="a313x.7781069.0.i0" class="selected" fill="#E4E4EE"></path></svg>