<?xml version="1.0" standalone="no"?><!DOCTYPE svg PUBLIC "-//W3C//DTD SVG 1.1//EN" "http://www.w3.org/Graphics/SVG/1.1/DTD/svg11.dtd"><svg t="1547808540250" class="icon" style="" viewBox="0 0 1024 1024" version="1.1" xmlns="http://www.w3.org/2000/svg" p-id="2494" xmlns:xlink="http://www.w3.org/1999/xlink" width="32" height="32"><defs><style type="text/css"></style></defs><path d="M960 448c-17.696 0-32-14.336-32-32L928 141.248l-218.272 218.304C784.768 429.632 832 529.184 832 640c0 212.064-171.936 384-384 384S64 852.064 64 640 235.936 256 448 256c78.08 0 150.624 23.456 211.264 63.488L882.72 96 608 96c-17.696 0-32-14.336-32-32s14.304-32 32-32l320 0 64 0 0 384C992 433.664 977.664 448 960 448zM448 325.824c-173.504 0-314.176 140.672-314.176 314.176S274.496 954.176 448 954.176s314.176-140.672 314.176-314.176S621.504 325.824 448 325.824zM928 96l-3.2 0L928 99.2 928 96z" p-id="2495" fill="#0EDADA"></path></svg>