<?xml version="1.0" standalone="no"?><!DOCTYPE svg PUBLIC "-//W3C//DTD SVG 1.1//EN" "http://www.w3.org/Graphics/SVG/1.1/DTD/svg11.dtd"><svg t="1547807603636" class="icon" style="" viewBox="0 0 1024 1024" version="1.1" xmlns="http://www.w3.org/2000/svg" p-id="14336" xmlns:xlink="http://www.w3.org/1999/xlink" width="32" height="32"><defs><style type="text/css"></style></defs><path d="M852.088652 106.139366c-28.892027-26.758434-67.824735-41.495066-109.62577-41.495066L279.489482 64.644299c-41.802058 0-80.734766 14.736633-109.626793 41.495066-29.586852 27.403117-45.88198 65.093531-45.88198 106.129132l0 598.72213c0 41.035602 16.295128 78.726016 45.88198 106.129132 28.892027 26.758434 67.824735 41.495066 109.626793 41.495066l462.9734 0c41.801035 0 80.733743-14.736633 109.62577-41.495066 29.587875-27.403117 45.883003-65.093531 45.883003-106.129132L897.971655 212.268498C897.971655 171.232896 881.676527 133.542482 852.088652 106.139366zM847.369164 810.990628c0 51.685149-49.022507 97.023754-104.907305 97.023754l-462.974423 0c-56.08332 0-107.159602-46.245254-107.159602-97.023754L172.327834 212.268498c0-50.7785 51.076282-97.023754 107.159602-97.023754l462.974423 0c55.884798 0 104.907305 45.338604 104.907305 97.023754L847.369164 810.990628z" p-id="14337" fill="#2c2c2c"></path><path d="M646.369314 655.713123l0-0.217964c13.115716 0 23.754007-10.662851 23.754007-23.787776 0-13.121855-10.634198-23.75503-23.754007-23.75503l-109.835547-0.011256 106.905822-125.677351-0.151449-0.168846c9.822716-8.692986 10.68434-23.738657 1.99647-33.537837-8.732895-9.840112-23.749914-10.728342-33.556257-2.012843l-100.748588 117.224842L407.876548 441.412338c-9.812483-8.721639-24.828478-7.827269-33.550117 2.01796-8.692986 9.79918-7.831362 24.838711 1.990331 33.531698l-0.146333 0.168846 112.607684 129.675408 0 1.134847-113.177666-0.089028 0 0.100284c-13.121855 0-23.75503 10.655687-23.75503 23.782659 0 13.115716 10.634198 23.75503 23.75503 23.75503l0 0.122797 113.177666 0.082888 0 48.236608-113.188922-0.089028 0 0.100284c-13.121855 0-23.759123 10.6782-23.759123 23.778566 0 13.143345 10.638291 23.787776 23.759123 23.787776l0 0.094144 113.188922 0.084934 0 55.93494 0.11154 0c0 13.093203 10.645454 23.732517 23.766286 23.732517 13.126972 0 23.771403-10.639315 23.771403-23.732517l0.11154 0 0-55.93494 109.813035 0.010233 0-0.189312c13.121855 0 23.760147-10.689457 23.760147-23.787776 0-13.144368-10.638291-23.778566-23.760147-23.778566l-109.813035-0.011256L536.538883 655.69675 646.369314 655.713123 646.369314 655.713123zM646.369314 655.713123" p-id="14338" fill="#2c2c2c"></path><path d="M767.332293 190.044334c-53.068659 86.683245-148.647505 144.647401-257.517051 144.647401s-204.448392-57.964156-257.517051-144.647401l-11.894911-18.888186-21.871123 7.953136-22.043039 10.93505c16.797571 33.505092 38.762839 63.952544 65.531506 90.720188 32.175817 32.175817 69.650313 57.440224 111.382786 75.091232 43.219337 18.280342 89.11462 27.548426 136.411833 27.548426 47.297212 0 93.193519-9.269108 136.412856-27.548426 41.732473-17.652032 79.20697-42.916439 111.381763-75.091232 26.768667-26.767644 48.734958-57.215096 65.532529-90.720188l-21.049409-11.929704-20.87647-9.94142L767.332293 190.044334z" p-id="14339" fill="#2c2c2c"></path></svg>