<?xml version="1.0" standalone="no"?><!DOCTYPE svg PUBLIC "-//W3C//DTD SVG 1.1//EN" "http://www.w3.org/Graphics/SVG/1.1/DTD/svg11.dtd"><svg t="1547807424769" class="icon" style="" viewBox="0 0 1024 1024" version="1.1" xmlns="http://www.w3.org/2000/svg" p-id="5624" xmlns:xlink="http://www.w3.org/1999/xlink" width="32" height="32"><defs><style type="text/css"></style></defs><path d="M1014.4 944L912 297.6c0-35.2-28.8-64-67.2-64h-96C739.2 112 636.8 12.8 512 12.8s-224 96-233.6 220.8H179.2c-35.2 0-67.2 28.8-67.2 64L9.6 944v3.2c0 38.4 28.8 67.2 67.2 67.2h870.4c38.4-3.2 67.2-32 67.2-70.4 0 3.2 0 0 0 0zM515.2 41.6c108.8 0 195.2 83.2 204.8 188.8H310.4c6.4-105.6 96-188.8 204.8-188.8zM352 313.6h323.2v512L534.4 704c-6.4-6.4-12.8-6.4-19.2-6.4-6.4 0-16 3.2-19.2 6.4L352 825.6c0-195.2-3.2-438.4 0-512z" p-id="5625" fill="#2c2c2c"></path></svg>