<?xml version="1.0" standalone="no"?><!DOCTYPE svg PUBLIC "-//W3C//DTD SVG 1.1//EN" "http://www.w3.org/Graphics/SVG/1.1/DTD/svg11.dtd"><svg t="1547807555376" class="icon" style="" viewBox="0 0 1024 1024" version="1.1" xmlns="http://www.w3.org/2000/svg" p-id="12854" xmlns:xlink="http://www.w3.org/1999/xlink" width="32" height="32"><defs><style type="text/css"></style></defs><path d="M1016.32 878.08c0 12.8-2.56 28.16-7.68 38.4-5.12 12.8-12.8 23.04-20.48 33.28-7.68 10.24-20.48 15.36-30.72 20.48-12.8 5.12-25.6 7.68-38.4 7.68L115.2 977.92c-12.8 0-28.16-2.56-40.96-7.68-12.8-5.12-23.04-12.8-33.28-20.48-10.24-10.24-17.92-20.48-23.04-33.28-5.12-12.8-7.68-25.6-7.68-38.4L10.24 322.56c0-28.16 10.24-51.2 28.16-71.68 20.48-20.48 43.52-28.16 71.68-28.16l806.4 0c28.16 0 51.2 10.24 71.68 28.16 20.48 20.48 28.16 43.52 28.16 71.68l0 151.04-250.88 0c-28.16 0-51.2 10.24-71.68 28.16-20.48 20.48-28.16 43.52-28.16 71.68 0 20.48 5.12 35.84 12.8 51.2 5.12 12.8 15.36 23.04 28.16 33.28 12.8 10.24 33.28 15.36 58.88 15.36l250.88 0L1016.32 878.08 1016.32 878.08zM865.28 171.52 363.52 171.52c40.96-20.48 76.8-40.96 112.64-58.88 30.72-15.36 61.44-33.28 92.16-48.64C599.04 46.08 622.08 33.28 640 25.6c25.6-12.8 48.64-20.48 69.12-20.48 20.48 0 38.4 5.12 51.2 10.24 15.36 7.68 30.72 17.92 40.96 33.28L865.28 171.52zM716.8 573.44c0-12.8 5.12-25.6 15.36-35.84 10.24-10.24 20.48-15.36 35.84-15.36 12.8 0 25.6 5.12 35.84 15.36 10.24 10.24 15.36 20.48 15.36 35.84 0 12.8-5.12 25.6-15.36 35.84-10.24 10.24-20.48 15.36-35.84 15.36-12.8 0-25.6-5.12-35.84-15.36C719.36 601.6 716.8 588.8 716.8 573.44L716.8 573.44zM716.8 573.44" p-id="12855"></path></svg>